<?xml version="1.0" encoding="UTF-8"?>
<svg version="1.1" viewBox="0 0 1600 600" width="1280" height="1280" xmlns="http://www.w3.org/2000/svg">
<path transform="translate(236 152)" d="m0 0c0.985-0.00429 1.97-0.00857 2.98-0.013 2.08-0.00572 4.16-0.00626 6.23-0.00191 3.15 0.00315 6.3-0.0203 9.45-0.0457 2.03-0.00227 4.06-0.00298 6.09-0.00195 0.927-0.00921 1.85-0.0184 2.81-0.0279 7.63 0.053 16.8 0.679 22.7 6.08 2.7 3.68 2.79 7.1 3.02 11.6 0.036 0.704 0.0721 1.41 0.109 2.13 0.319 6.81 0.363 13.6 0.321 20.4-0.0131 2.14-0.0194 4.29-0.0241 6.43-0.0112 4.53-0.0306 9.06-0.051 13.6-0.0237 5.3-0.044 10.6-0.0559 15.9-0.00647 2.11-0.019 4.22-0.0317 6.33-0.00495 1.9-0.00495 1.9-0.01 3.85-0.00524 1.12-0.0105 2.24-0.0159 3.39-0.0673 2.62-0.0673 2.62 1.11 4.64 3.58 1.19 6.24 1.34 10 1 1.95-1.89 2.82-3.64 4-6.06 1.08-2.1 2.34-3.28 4-4.94 2.14-3.43 4.11-6.95 6.06-10.5 0.507-0.918 1.01-1.84 1.54-2.78 1.44-2.68 1.44-2.68 2.5-5.47 0.984-2.44 2.07-3.41 3.91-5.25 1.04-1.98 2.03-3.99 3-6 1.64-3.01 3.32-6.01 5-9h2c0.371-1.21 0.371-1.21 0.75-2.44 1.25-2.56 1.25-2.56 3.08-3.3 5.44-0.645 10.3 2.99 14.4 6.17 1.11 0.892 2.21 1.79 3.31 2.7 0.537 0.444 1.07 0.888 1.63 1.34 1.31 1.13 2.57 2.32 3.81 3.53v2c0.557 0.0825 1.11 0.165 1.69 0.25 5.53 1.8 8.97 6.53 12.6 10.8 1.36 1.56 2.79 3.05 4.25 4.51 4.14 4.14 7.84 8.51 11.2 13.3 1.89 3.14 1.89 3.14 4.25 4.12 1.14 1.96 1.14 1.96 2.39 4.53 0.46 0.948 0.919 1.9 1.39 2.87 0.484 1.02 0.968 2.04 1.47 3.1 0.494 1.04 0.987 2.08 1.5 3.15 5.35 11.4 9.81 22.9 12.3 35.4 0.33 0.33 0.66 0.66 1 1 0.326 3.62 0.514 7.24 0.719 10.9-0.0674 2.99-0.0674 2.99 1.28 4.12 0.128 1.74 0.188 3.49 0.221 5.24 0.0232 1.12 0.0463 2.24 0.0702 3.39 0.0298 1.82 0.0298 1.82 0.0602 3.69 0.0347 1.86 0.0347 1.86 0.0702 3.76 0.0477 2.63 0.0934 5.25 0.136 7.88 0.0548 3.37 0.119 6.75 0.185 10.1 0.062 3.21 0.116 6.41 0.171 9.62 0.0358 1.82 0.0358 1.82 0.0724 3.69 0.0169 1.12 0.0337 2.24 0.0511 3.39 0.017 0.99 0.0339 1.98 0.0514 3-0.089 2.24-0.089 2.24-1.09 3.24-1.77 0.1-3.54 0.129-5.31 0.131-1.16 0.00384-2.32 0.00768-3.51 0.0116-1.29-8.66e-4 -2.58-0.00173-3.91-0.00263-1.37 0.00258-2.74 0.00559-4.11 9e-3 -3.79 0.0081-7.57 0.00986-11.4 0.0106-4.08 0.00185-8.15 0.00939-12.2 0.0161-8.92 0.0136-17.8 0.0196-26.8 0.024-5.57 0.00276-11.1 7e-3 -16.7 0.0115-15.4 0.0122-30.8 0.0225-46.2 0.0259-0.987 2.2e-4 -1.97 4.39e-4 -2.99 6.65e-4 -0.989 2.18e-4 -1.98 4.37e-4 -3 6.61e-4 -2 4.43e-4 -4.01 8.9e-4 -6.01 0.00134-1.49 3.32e-4 -1.49 3.32e-4 -3.01 6.71e-4 -16.1 0.00395-32.2 0.0214-48.3 0.0447-16.5 0.0237-33.1 0.0362-49.6 0.0373-9.29 9.18e-4 -18.6 0.0067-27.9 0.0248-7.91 0.0154-15.8 0.0205-23.7 0.0123-4.04-0.00392-8.07-0.00292-12.1 0.0111-3.69 0.0127-7.39 0.0116-11.1-5.91e-4 -1.97-0.0029-3.95 0.00903-5.92 0.0214-1.17-0.00659-2.33-0.0132-3.54-0.02-1.01 5.97e-4 -2.02 0.00119-3.06 0.00181-3.01-0.428-4.39-1.36-6.63-3.37 0.242-0.86 0.242-0.86 0.488-1.74 0.504-2.23 0.662-4.19 0.701-6.47 0.0251-1.23 0.0251-1.23 0.0507-2.49 0.0204-1.32 0.0204-1.32 0.0411-2.67 0.0276-1.38 0.0276-1.38 0.0558-2.79 0.0587-2.95 0.111-5.89 0.163-8.84 0.571-32.1 0.571-32.1 2.5-36 0.129-1.52 0.229-3.04 0.312-4.56 0.418-4.57 1.59-7.9 3.6-12 1.24-2.79 2.02-5.57 2.84-8.52 3.28-11 8.91-21.4 15.2-30.9 0.855-1.42 1.71-2.83 2.56-4.25 1.87-3 3.89-5.28 6.44-7.75 0.95-1.28 1.89-2.58 2.81-3.88 2.51-3.42 5.19-5.98 8.48-8.63 1.74-1.52 3.04-3.11 4.45-4.93 3.27-4 7.35-6.37 11.8-8.98 2.19-1.39 3.72-2.72 5.49-4.58 0.949-0.619 1.9-1.24 2.88-1.88 3.23-2.02 3.23-2.02 5.69-4.94 2.44-2.19 2.44-2.19 5-2.44 3.75 1.92 4.65 4.47 6.44 8.25v2h2c0.29 0.957 0.29 0.957 0.586 1.93 0.26 0.826 0.521 1.65 0.789 2.5 0.255 0.824 0.51 1.65 0.773 2.5 0.66 2.24 0.66 2.24 2.85 3.07 0.873 1.53 1.68 3.1 2.44 4.69 0.436 0.901 0.871 1.8 1.32 2.73 0.41 0.852 0.82 1.7 1.24 2.58 0.598 1.16 1.2 2.31 1.81 3.5 1.19 2.5 1.19 2.5 1.19 4.5 1.49 0.495 1.49 0.495 3 1 0.965 1.9 1.92 3.8 2.82 5.72 1.92 3.72 4.32 7.21 7.18 10.3h2c0.392 0.495 0.784 0.99 1.19 1.5 2.75 2.28 5.36 1.6 8.81 1.5-0.00999-1.42-0.00999-1.42-0.0202-2.87-0.0609-8.94-0.106-17.9-0.135-26.8-0.0156-4.6-0.0368-9.2-0.0709-13.8-0.0327-4.44-0.0506-8.88-0.0583-13.3-0.00552-1.69-0.0163-3.38-0.0326-5.07-0.0219-2.38-0.0248-4.75-0.0234-7.13-0.0108-0.691-0.0216-1.38-0.0327-2.09 0.0461-7.37 2.31-13.5 7.37-18.9 6.59-6.23 13.8-6.31 22.4-6.3z" fill="#FBFCFE"/>
<path transform="translate(91.8 386)" d="m0 0c1.41-0.00115 2.82-0.00274 4.24-0.00473 3.87-0.00417 7.74-0.00211 11.6 9.86e-4 4.18 0.00226 8.36-0.00123 12.5-0.00398 8.19-0.00445 16.4-0.00349 24.6-5.87e-4 6.66 0.00226 13.3 0.00256 20 0.00148 0.948-1.53e-4 1.9-3.06e-4 2.87-4.64e-4 1.93-3.2e-4 3.85-6.44e-4 5.78-9.73e-4 18.1-0.00285 36.1 4.27e-4 54.2 0.0058 15.5 0.00446 31 0.00369 46.4-9.19e-4 18-0.00536 36-0.00745 53.9-0.00439 1.92 3.19e-4 3.84 6.33e-4 5.76 9.43e-4 0.944 1.54e-4 1.89 3.09e-4 2.86 4.68e-4 6.64 8.62e-4 13.3-5.91e-4 19.9-0.00295 8.1-0.00281 16.2-0.00203 24.3 0.00328 4.13 0.00262 8.26 0.00367 12.4 3.51e-4 3.79-3e-3 7.58-0.00131 11.4 0.00398 2.01 0.00163 4.01-0.0016 6.02-0.00506 21 0.0451 21 0.0451 24.3 2.47 1.97 2.77 1.47 5.54 1.38 8.85-0.0271 1.27-0.0541 2.54-0.082 3.86-0.0522 1.46-0.0522 1.46-0.105 2.96-2.97 0.99-5.94 1.98-9 3v2c-2.99 1.69-5.99 3.35-9 5-1.21 0.663-1.21 0.663-2.44 1.34-6.01 3.17-12 5.12-18.6 6.66v2c-0.831 0.193-1.66 0.387-2.52 0.586-1.63 0.391-1.63 0.391-3.29 0.789-1.08 0.255-2.16 0.51-3.27 0.773-3.07 0.739-3.07 0.739-5.92 2.85-2.04 0.681-4.11 1.3-6.19 1.88-1.24 0.345-2.48 0.691-3.76 1.05-4.86 1.31-9.74 2.52-14.6 3.68-2.78 0.672-5.41 1.39-8.06 2.48-2.61 1.01-4.76 1.25-7.55 1.41-6.32 0.486-12.6 1.28-18.5 3.53-4.14 1.23-8.04 1.39-12.3 1.53-1.57 0.0604-3.15 0.124-4.72 0.191-0.69 0.0239-1.38 0.0479-2.09 0.0725-2.13 0.116-2.13 0.116-4.15 0.676-4.22 0.706-8.37 0.636-12.6 0.627-0.968 0.00175-1.94 0.0035-2.93 0.00531-3.2 0.0044-6.39 0.00149-9.59-0.00189-2.22 6.74e-4 -4.45 0.00164-6.67 0.0029-4.66 0.00147-9.31-6.68e-4 -14-0.00534-5.97-0.0057-11.9-0.00242-17.9 0.00357-4.59 0.00361-9.18 0.00246-13.8-1.28e-4 -2.2-6.67e-4 -4.4 1.51e-4 -6.6 0.00248-3.08 0.00254-6.15-0.00133-9.23-0.0069-0.909 0.00202-1.82 0.00405-2.76 0.00613-4.12-0.0138-7.88-0.176-11.9-1.14-3.31-0.218-6.62-0.389-9.94-0.518-4.61-0.233-8.63-1.08-13.1-2.48-5.57-1.45-11-2.29-16.7-2.66-2.26-0.344-2.26-0.344-4.08-1.29-3.13-1.51-6.41-1.88-9.81-2.43-5.7-0.985-10.9-2.28-16.2-4.66-3.62-1.58-7.38-2.7-11.1-3.89-5.31-1.71-10.3-3.53-15.2-6.15-2.1-1.1-2.1-1.1-5.53-2.23-10.6-3.81-19.5-9.69-27.3-17.7-0.66-0.66-1.32-1.32-2-2-0.438-2.31-0.438-2.31 0-5 4.2-5.16 8.23-6.92 14.7-7.8 5.35-0.474 10.7-0.341 16.1-0.332z" fill="#FCFDFF"/>
<path transform="translate(489 262)" d="m0 0c0.892 0.0155 1.78 0.0309 2.7 0.0469 2.26 0.151 4.51 0.4 6.76 0.7 3.98 0.505 7.91 0.673 11.9 0.749 1.41 0.0329 2.83 0.0661 4.24 0.0996 2.19 0.0476 4.39 0.0922 6.58 0.131 2.14 0.0397 4.28 0.0912 6.42 0.144 1.27 0.0251 2.54 0.0501 3.84 0.0759 3.09 0.287 4.63 0.808 7.26 2.3 1.86 0.309 1.86 0.309 3.75 0.625 5.52 1.3 8.78 5.09 12.2 9.38 4.89 8.05 5.11 17.7 3.5 26.8-1.66 6.12-3.99 11.9-9.5 15.5-2.95 1.51-5.86 2.67-9 3.72 3.55 8.24 3.55 8.24 10 14v2c1.49 0.495 1.49 0.495 3 1v2h2c2.46 7.37 2.17 18.6-0.762 25.9-5.1 8.85-12.9 18.3-22.8 21.6-4.2 0.911-8.45 1.1-12.7 1.31-2.58-0.0849-2.58-0.0849-3.66 1.21-3.11 0.251-6.2 0.431-9.31 0.562-0.957 0.0425-1.91 0.0849-2.9 0.129-12.6 0.498-25.2 0.399-37.8 0.309-1.97-3.95-1.18-8.91-1.19-13.2-0.0184-1.56-0.0184-1.56-0.0371-3.14-0.0102-5.34 0.263-9.58 2.22-14.6 0.248-1.89 0.438-3.79 0.562-5.69 0.208-3.06 0.461-5.38 1.44-8.31 0.124-1.56 0.201-3.12 0.246-4.68 0.0329-0.911 0.0657-1.82 0.0996-2.76 0.0608-1.91 0.118-3.81 0.172-5.72 0.188-5.04 0.761-9.07 2.48-13.8 0.256-2.35 0.442-4.7 0.562-7.06 0.345-6.48 0.345-6.48 0.938-9.4 0.91-4.62 0.902-9.35 1.12-14 0.348-3.21 0.891-4.74 2.38-7.5 0.343-2.35 0.343-2.35 0.438-4.81 0.456-5.33 1.28-10 5.34-13.9 2.71-1.62 4.33-1.66 7.47-1.57zm7.75 22.2c-1.94 3.87-1.48 8.64-1.72 12.9-0.281 3.09-0.281 3.09-1.28 4.09-0.0867 1.49-0.107 2.98-0.0977 4.47 0.00322 0.899 0.00645 1.8 0.00977 2.72 0.00838 0.946 0.0168 1.89 0.0254 2.87 0.00451 0.949 0.00902 1.9 0.0137 2.88 0.0118 2.35 0.0283 4.71 0.0488 7.06 4.08 0.0885 8.17 0.141 12.2 0.188 1.71 0.0377 1.71 0.0377 3.45 0.0762 7.54 0.0643 15.3-0.141 22.3-3.26 2.15-2.85 3.09-5.57 4-9 0.413-0.99 0.825-1.98 1.25-3 1.77-7.08 1.2-15.1-1.25-22-6.09-5.57-15.3-5.39-23.1-5.44-0.976-0.0329-1.95-0.0657-2.96-0.0996-6.05-0.0454-9.14 0.327-12.9 5.54zm42 11v5h1v-5h-1zm-65 6 1 2zm17 37c-1.81 2.91-2.02 5.16-2.5 8.56-0.5 3.44-0.5 3.44-1.52 5.12-1.49 3.5-1.27 7.01-1.23 10.8-0.00773 0.751-0.0155 1.5-0.0234 2.28 0.0147 4.17 0.225 7.54 2.27 11.3 4.5 2.25 10.6 1.28 15.6 1.31 1.25 0.029 2.5 0.058 3.79 0.0879 9.06 0.0619 15.7-0.918 22.6-6.96 4.43-5.24 4.46-8.53 4.5-15.1 0.0329-0.873 0.0657-1.75 0.0996-2.65 0.0525-6.39-1.34-10.8-5.54-15.7-3.27-1.63-6.9-1.34-10.5-1.5-8.23-0.365-8.23-0.365-10.5-1.5-6.39-0.808-11.8 0.0874-17 4z" fill="#FBFCFE"/>
<path transform="translate(1472 262)" d="m0 0c0.894-0.00773 1.79-0.0155 2.71-0.0234 7.55 0.0221 14 1.41 21 4.21 1.23 0.478 1.23 0.478 2.49 0.965 2.26 1.13 3.5 2.26 5.2 4.1 0.581 0.463 1.16 0.926 1.76 1.4 10.1 8.07 18.8 21.6 21 34.5 2.41 26.9 2.41 26.9-3.72 36.1-0.567 2.82-0.949 5.65-1.34 8.5-0.66 2.5-0.66 2.5-3.66 4.5-0.829 2.02-0.829 2.02-1.38 4.31-1.35 4.42-3.17 6.56-6.62 9.69-0.791 1.15-1.56 2.32-2.31 3.5-2.43 3.56-5.27 5.4-9.02 7.46-1.84 0.946-1.84 0.946-2.67 3.04-1.93 0.93-1.93 0.93-4.44 1.88-0.902 0.345-1.8 0.691-2.73 1.05-0.933 0.356-1.87 0.712-2.83 1.08-2.5 1.02-4.99 2.04-7.48 3.07-6.87 2.54-12.9 3.32-20.1 3.3-1.46 8.46e-4 -1.46 8.46e-4 -2.94 0.00171-7.79-0.119-14.2-1.4-21.4-4.38-1.48-0.495-1.48-0.495-3-1v-2c-0.681-0.206-1.36-0.413-2.06-0.625-5.18-2.42-9.95-6.45-12.9-11.4v-2c-0.99-0.33-1.98-0.66-3-1-1.99-3.17-3.44-6.61-5-10-0.578-1.13-1.15-2.27-1.75-3.44-1.44-4.09-1.79-7.8-2.04-12.1-0.126-2.59-0.126-2.59-1.21-5.45-0.178-2.69-0.0873-5.29 0-8 0.495-0.495 0.495-0.495 1-1 0.134-2 0.231-4 0.312-6 0.361-5.33 1.3-9.22 3.71-13.9 0.998-2.1 1.54-4.04 2.04-6.31 0.89-3.56 1.95-5.72 3.94-8.75 0.516-1.07 1.03-2.14 1.56-3.25 1.44-2.75 1.44-2.75 3.44-3.75 0.392-0.887 0.784-1.77 1.19-2.69 1.98-3.62 4.01-5.4 7.18-7.93 1.78-1.39 1.78-1.39 3.26-3.63 1.81-2.31 3.65-2.75 6.38-3.75 0.578-0.474 1.15-0.949 1.75-1.44 2.87-1.99 5.8-2.82 9.13-3.82 2.38-0.738 2.38-0.738 5.12-2.75 6.41-2.12 12.9-2.31 19.6-2.25zm-19.6 21.2c-1.09 0.33-2.19 0.66-3.31 1-0.887 0.33-1.77 0.66-2.69 1-0.969 2.03-0.969 2.03-1 4-0.557 0.0619-1.11 0.124-1.69 0.188-4.83 1.7-7.3 5.5-9.44 9.94-0.291 0.663-0.583 1.33-0.883 2.01-0.992 1.87-0.992 1.87-2.57 3.39-2.29 2.38-2.03 5.28-2.42 8.47-0.327 0.598-0.655 1.2-0.992 1.81-1.35 2.93-1.4 5.54-1.57 8.75-0.191 3.43-0.349 6.17-1.44 9.44-0.662 11.9 1.57 21.9 8 32h2c0.247 0.619 0.495 1.24 0.75 1.88 1.46 2.48 2.63 3.08 5.25 4.12v2c6.71 3.62 12.4 4.68 19.9 4.56 0.967-0.00516 1.93-0.0103 2.93-0.0156 6.92-0.178 12.5-1.21 18.1-5.55v-2c1.21-0.402 1.21-0.402 2.44-0.812 0.846-0.392 1.69-0.784 2.56-1.19 0.495-1.49 0.495-1.49 1-3 1.32-0.702 2.65-1.37 4-2 1.77-1.19 1.77-1.19 3-3 0.144-1.01 0.289-2.02 0.438-3.06 0.278-1.45 0.278-1.45 0.562-2.94 0.66-0.289 1.32-0.577 2-0.875 0.66-0.371 1.32-0.742 2-1.12 0.647-3.62 0.647-3.62 0.727-6.03 0.273-1.97 0.273-1.97 2.27-4.97 0.27-2.37 0.448-4.75 0.562-7.12 0.34-6.78 0.34-6.78 1.44-7.88 1.28-12.9-2.34-25.1-9-36-1.45-1.82-1.45-1.82-3-3h-2v-2c-1.05-0.619-2.1-1.24-3.19-1.88-0.592-0.348-1.18-0.696-1.79-1.05-5.78-3.06-10.5-3.44-17-3.45-1.32-0.0367-1.32-0.0367-2.67-0.0742-5.73-0.0257-8.77 0.791-13.4 4.45zm-48 59 1 2z" fill="#FBFCFE"/>
<path transform="translate(879,265)" d="m0 0c11.4 3.94 21.9 12.3 27.6 23 0.483 1.07 0.967 2.13 1.46 3.23 0.486 1.06 0.972 2.11 1.47 3.2 0.483 1.17 0.967 2.34 1.46 3.55 0.277 0.624 0.554 1.25 0.84 1.89 2.65 6.68 2.58 13.3 2.5 20.4-0.0238 2.05-0.0205 4.1-0.0139 6.15-0.0579 10.6-0.0579 10.6-2.32 14.6-0.371 1.7-0.371 1.7-0.75 3.44-1.68 7.14-4.73 15.6-10.2 20.6-0.681 1.18-0.681 1.18-1.38 2.38-1.88 3.03-4.04 5.16-6.62 7.62-0.523 0.544-1.05 1.09-1.59 1.65-1.43 1.49-2.92 2.92-4.41 4.35h-2v2c-7.92 3.9-15.2 7.47-24 9-1.31 0.509-1.31 0.509-2.65 1.03-4.37 1.27-8.39 1.26-12.9 1.22-0.837 0.00773-1.67 0.0155-2.54 0.0234-4.47-0.0142-7.8-0.33-11.9-2.27-1.41-0.278-2.83-0.529-4.25-0.75-11.4-2.49-21.4-12.9-27.7-22.4-5.91-10.6-7.36-21.3-7.27-33.3-0.00773-1.07-0.0155-2.14-0.0234-3.24 0.0231-9.45 1.19-17.8 5.21-26.4 0.504-1.1 1.01-2.21 1.53-3.35 1.54-2.59 1.54-2.59 4.54-3.59 0.124-0.722 0.247-1.44 0.375-2.19 1.31-5.88 3.06-8.42 7.7-12.1 2.08-1.81 3.74-3.75 5.49-5.87 2.81-3.31 5.3-5.27 9.44-6.81h2v-2c2.97-0.99 5.94-1.98 9-3v-2c3.51-1.76 7.71-1.41 11.6-1.61 20.9-1.18 20.9-1.18 30.4 1.61zm-40 18c-1.42 0.526-1.42 0.526-2.88 1.06-0.701 0.309-1.4 0.619-2.12 0.938-0.33 0.99-0.66 1.98-1 3-0.99 0.33-1.98 0.66-3 1-3.16 3.47-5.69 6.91-8 11-0.773 1.24-0.773 1.24-1.56 2.5-1.4 2.44-2.42 4.88-3.44 7.5-0.33 0.33-0.66 0.66-1 1-3.83 15-4.39 34.4 1 49h2c0.0206 0.681 0.0412 1.36 0.0625 2.06 1.94 6.07 7.17 9.77 12.6 12.8 5.98 2.76 11.9 3.12 18.4 3.12h2.8c5.31-0.258 8.4-1.37 12.5-4.75 1.91-1.39 3.6-1.99 5.84-2.69 4.22-1.46 6.36-3.97 8.88-7.56 1.04-1.35 2.08-2.71 3.12-4.06 3.73-4.93 6.19-8.55 6.44-14.9 0.137-3.23 0.334-5.78 1.44-8.82 1.36-4.41 1.38-8.53 1.37-13.1 0.00129-0.918 0.00258-1.84 0.00391-2.78-0.13-8.53-1.81-16.2-4.38-24.3h-2c-0.346-1.09-0.346-1.09-0.699-2.21-1.55-3.33-3.37-5.06-6.11-7.48-0.852-0.767-1.7-1.53-2.58-2.32-5.99-4.57-11.7-4.35-19-4.36-1.52-0.0367-1.52-0.0367-3.08-0.0742-6.48-0.0253-10.2 0.757-15.5 4.45zm-40 82 1 2z" fill="#FBFCFE"/>
<path transform="translate(1045 262)" d="m0 0c0.831 0.00564 1.66 0.0113 2.52 0.0171 12.6 0.247 23.6 4.31 33.3 12.5 2.77 2.95 3.25 5.1 3.31 9.12-0.265 4.39-0.265 4.39-1.5 5.62-9.58 0.98-9.58 0.98-13.6-1.81-1.18-1.08-1.18-1.08-2.38-2.19-11.1-4.91-24.3-7.25-35.8-2.93-6.56 2.31-6.56 2.31-11.2 6.93-0.969 0.103-1.94 0.206-2.94 0.312-1.01 0.227-2.02 0.454-3.06 0.688-1.35 2.3-1.35 2.3-2 5-1.07 2.52-1.92 3.93-3.94 5.81-2.6 2.75-3.75 5.71-5.06 9.19-0.495 1.18-0.99 2.35-1.5 3.56-5.37 14.6-5.91 26.9-0.594 41.3 1.09 3.09 1.09 3.09 1.09 5.09h2c0.672 1.29 1.34 2.58 2 3.88 0.371 0.719 0.742 1.44 1.12 2.18 0.875 1.95 0.875 1.95 0.875 3.95 0.66 0.227 1.32 0.454 2 0.688 3.22 1.41 5.88 3.17 8.74 5.19 6.95 3.45 16.7 2.86 24.3 2.12 2.96-1.06 5.46-2.29 8.14-3.91 1.86-1.09 1.86-1.09 3.86-1.09 0.309-0.619 0.619-1.24 0.938-1.88l2.06-4.12c0.125-2.82 0.185-5.61 0.188-8.44 0.0122-0.777 0.0245-1.55 0.0371-2.35 0.0101-3.92-0.00207-5.88-2.22-9.21-2.98-0.802-2.98-0.802-6.38-1.31-7.33-1.54-7.33-1.54-9.5-4.62-1.12-3.06-1.12-3.06-1.12-5.31 1.36-2.38 2.42-2.84 5-3.75 6.3-1.31 12.7-1.36 19.1-1.61 0.872-0.0374 1.74-0.0748 2.64-0.113 0.794-0.0303 1.59-0.0606 2.41-0.0918 1.87 0.00625 1.87 0.00625 2.85-1.19 3.59-0.398 5.4-0.401 8.44 1.62 2.14 3.25 1.24 4.56 0.562 8.38-0.282 4.4-0.39 8.81-0.518 13.2-0.2 5.26-0.875 9.74-2.48 14.8-0.294 1.87-0.566 3.75-0.812 5.62-0.848 4.91-2.17 7.24-6.19 10.4-0.412 0.485-0.825 0.969-1.25 1.47-2.51 2.2-5.17 2.95-8.31 4.03-1.73 0.603-1.73 0.603-3.5 1.22-0.626 0.203-1.25 0.406-1.9 0.615-1.43 0.467-2.84 0.961-4.25 1.48-7.15 2.45-13.9 2.67-21.4 2.63-1.18 0.02-2.35 0.04-3.56 0.0605-7.04-0.00395-11.9-0.76-17.8-4.5-0.922-0.432-1.84-0.864-2.79-1.31-5.01-2.36-8.47-4.62-12.2-8.69-1.49-0.495-1.49-0.495-3-1v-4c-0.99-0.33-1.98-0.66-3-1-2-3-2-3-2-6h-2c-7.52-13.1-11.5-28.1-8.35-43.1 1.82-6.34 1.82-6.34 3.35-7.87 0.393-1.68 0.741-3.37 1.06-5.06 0.177-0.919 0.353-1.84 0.535-2.79 0.133-0.71 0.266-1.42 0.402-2.15h2c0.124-0.99 0.124-0.99 0.25-2 2.52-10.1 9.53-19.8 17.8-26 0.695-0.576 1.39-1.15 2.11-1.75 12.4-10.1 27.3-15.7 43.3-15.6zm-68.4 58.3 1 3zm0 28 1 2z" fill="#FCFDFF"/>
<path transform="translate(1131 262)" d="m0 0c1.13 0.0245 2.25 0.049 3.41 0.0742 2.96 0.238 2.96 0.238 5.96 1.24 1.73 0.111 3.46 0.166 5.19 0.189 1.06 0.0167 2.12 0.0334 3.2 0.0507 1.71 0.0204 1.71 0.0204 3.46 0.0411 1.75 0.0276 1.75 0.0276 3.54 0.0558 5.02 0.0788 10 0.147 15 0.215 3.66 0.0516 7.31 0.109 11 0.167 1.14 0.0136 2.29 0.0272 3.47 0.0411 1.05 0.0167 2.1 0.0334 3.19 0.0507 0.93 0.0125 1.86 0.0251 2.82 0.038 2.11 0.151 2.11 0.151 3.11 1.15 0.238 2.14 0.238 2.14 0.312 4.81 0.0561 1.31 0.0561 1.31 0.113 2.64-0.426 2.54-0.426 2.54-1.76 4.67-4.25 2.99-8.6 2.37-13.7 2.3-2.21 0.0096-4.41 0.0194-6.62 0.0293-3.48-0.00862-6.96-0.0255-10.4-0.0476-3.36-0.0145-6.71 6.95e-4 -10.1 0.0183-1.57-0.0247-1.57-0.0247-3.16-0.0499-2.66 0.0185-5.1 0.069-7.71 0.616-5.16 5.78-4.3 14.4-4.61 21.8-0.292 6.14-0.292 6.14-1.39 7.24-0.233 1.68-0.413 3.37-0.562 5.06-0.0838 0.919-0.168 1.84-0.254 2.79-0.0909 1.07-0.0909 1.07-0.184 2.15 0.699-0.0116 1.4-0.0232 2.12-0.0352 0.91-0.00902 1.82-0.018 2.76-0.0273 0.905-0.0116 1.81-0.0232 2.74-0.0352 2.38 0.0977 2.38 0.0977 4.38 1.1 1.91 0.142 3.83 0.226 5.74 0.281 1.15 0.0374 2.3 0.0748 3.48 0.113 1.81 0.0522 1.81 0.0522 3.65 0.105 2.37 0.069 4.74 0.142 7.12 0.219 1.06 0.0303 2.11 0.0606 3.2 0.0918 2.42 0.163 4.5 0.502 6.81 1.19v2h2c-0.875 6.75-0.875 6.75-2 9h-2c-0.495 1.49-0.495 1.49-1 3-12.9 0.33-25.7 0.66-39 1-3.28 8.2-4.21 16.2-4.78 24.9-0.19 2.61-0.476 5.16-0.848 7.75-0.665 3.19-0.665 3.19 0.625 5.31 2.81 0.936 4.44 1.11 7.33 1.08 0.871-0.00653 1.74-0.0131 2.64-0.0198 0.938-0.0114 1.88-0.0229 2.84-0.0347 1.98-0.0126 3.96-0.025 5.95-0.0371 3.13-0.0249 6.25-0.0529 9.38-0.0862 3.02-0.0301 6.03-0.048 9.05-0.0642 1.41-0.0202 1.41-0.0202 2.84-0.0408 0.871-0.00338 1.74-0.00676 2.64-0.0102 0.766-0.00746 1.53-0.0149 2.32-0.0226 2.01 0.234 2.01 0.234 5.01 2.23 0.293 3.04 0.293 3.04 0.188 6.62-0.0406 1.78-0.0406 1.78-0.082 3.6-0.0348 0.915-0.0696 1.83-0.105 2.77-6.67 0.145-13.3 0.287-20 0.427-2.26 0.0479-4.52 0.0963-6.78 0.146-21.6 0.47-21.6 0.47-31.8 0.521-1.25 0.00709-2.51 0.0142-3.8 0.0215-3.97-0.127-7.69-0.442-11.6-1.12-1.56-3.13-1.4-6.58-1-10 0.66-0.99 1.32-1.98 2-3 0.422-2.64 0.422-2.64 0.562-5.5 0.206-3.12 0.443-5.52 1.44-8.5 0.135-1.54 0.224-3.09 0.281-4.63 0.0374-0.888 0.0748-1.78 0.113-2.69 0.0706-1.87 0.141-3.75 0.211-5.62 0.0374-0.886 0.0748-1.77 0.113-2.68 0.0454-1.22 0.0454-1.22 0.0918-2.47 0.189-1.9 0.189-1.9 1.19-2.9 0.215-1.53 0.371-3.08 0.5-4.62 0.0825-0.935 0.165-1.87 0.25-2.83 0.0825-0.984 0.165-1.97 0.25-2.98 0.163-1.94 0.329-3.87 0.5-5.81 0.0722-0.863 0.144-1.73 0.219-2.61 0.281-2.14 0.281-2.14 1.28-4.14 0.129-1.74 0.202-3.49 0.246-5.23 0.0329-1.05 0.0657-2.1 0.0996-3.18 0.0608-2.21 0.118-4.42 0.172-6.62 0.175-5.41 0.543-9.86 2.48-15 0.25-2.1 0.439-4.2 0.562-6.31 0.337-5.59 0.337-5.59 1.44-6.69 0.163-2.75 0.255-5.49 0.328-8.24 0.672-2.76 0.672-2.76 2.8-5.1 3.45-2 5.53-2.11 9.49-1.98zm27.4 60.3v1h5v-1h-5z" fill="#FCFDFF"/>
<path transform="translate(606 264)" d="m0 0c0.672-0.00175 1.34-0.0035 2.04-0.00531 2.22-0.00441 4.45-0.00148 6.67 0.00189 1.54-6.73e-4 3.08-0.00164 4.63-0.0029 3.23-0.00148 6.46 6.73e-4 9.7 0.00534 4.15 0.0057 8.3 0.00241 12.5-0.00357 3.18-0.00361 6.37-0.00247 9.55 1.28e-4 1.53 6.69e-4 3.06-1.58e-4 4.59-0.00248 2.14-0.00253 4.27 0.00131 6.41 0.0069 1.22 7.96e-4 2.44 0.00159 3.69 0.00241 2.73 0.127 2.73 0.127 3.73 1.13v14c-17.5 0.33-35 0.66-53 1-1.21 4.85-1.37 9.51-1.62 14.5-0.379 3.51-0.379 3.51-1.38 6.46-1.2 3.64-1.45 7.13-1.63 10.9-0.0387 0.688-0.0773 1.38-0.117 2.09-0.0933 1.68-0.177 3.36-0.258 5.04 1.01-0.0174 1.01-0.0174 2.05-0.0352 0.892-0.00902 1.78-0.018 2.7-0.0273 0.882-0.0116 1.76-0.0232 2.67-0.0352 2.58 0.0977 2.58 0.0977 4.44 0.588 2.36 0.562 4.52 0.685 6.95 0.755 0.912 0.0329 1.82 0.0657 2.76 0.0996 1.91 0.0611 3.81 0.118 5.72 0.172 10.6 0.397 10.6 0.397 13.7 3.48 0.136 3.66 0.165 6.51-1 10-1.16 0.00411-2.32 0.00822-3.52 0.0125-4.31 0.0218-8.62 0.0761-12.9 0.14-1.86 0.0232-3.73 0.0376-5.59 0.043-2.68 0.00929-5.36 0.0503-8.04 0.0974-0.832-0.00393-1.66-0.00787-2.52-0.0119-4.99 0.117-4.99 0.117-8.91 3.15-3.09 5.34-2.81 11-3.09 17-0.292 5.48-0.292 5.48-1.39 6.58-0.0726 2.19-0.0837 4.38-0.0625 6.56 0.00902 1.2 0.018 2.4 0.0273 3.63 0.0116 0.927 0.0232 1.85 0.0352 2.81 2.97 1.7 5.14 2.26 8.55 2.3 0.894 0.0166 1.79 0.0333 2.71 0.0504 1.44 0.0126 1.44 0.0126 2.9 0.0255 1.48 0.0255 1.48 0.0255 3 0.0515 3.16 0.0531 6.31 0.0934 9.47 0.132 3.16 0.0439 6.32 0.0906 9.49 0.143 1.97 0.032 3.94 0.0589 5.9 0.0802 0.888 0.0135 1.78 0.027 2.69 0.0409 0.783 0.00951 1.57 0.019 2.37 0.0288 1.92 0.145 1.92 0.145 3.92 1.14 0.0269 1.98 0.0463 3.96 0.0625 5.94 0.0116 1.1 0.0232 2.2 0.0352 3.34-0.0977 2.72-0.0977 2.72-1.1 3.72-2.23 0.105-4.46 0.139-6.69 0.145-0.699 0.00336-1.4 0.00672-2.12 0.0102-2.32 0.00954-4.64 0.0115-6.97 0.0125-1.61 0.00321-3.22 0.00657-4.82 0.0101-3.38 6e-3 -6.75 0.00784-10.1 0.00725-4.33-1.02e-4 -8.66 0.0136-13 0.0308-3.32 0.0111-6.64 0.0131-9.97 0.0126-1.6 0.00118-3.2 0.00562-4.79 0.0133-2.23 0.00976-4.46 0.00694-6.69 8.95e-4 -1.91 0.00214-1.91 0.00214-3.85 0.00432-2.97-0.247-2.97-0.247-4.97-2.25-0.151-2.05-0.151-2.05-0.0117-4.54 0.0471-0.891 0.0941-1.78 0.143-2.7 0.0599-0.933 0.12-1.87 0.182-2.83 0.0725-1.4 0.0725-1.4 0.146-2.84 0.398-6.96 0.398-6.96 1.54-8.1 0.238-3.28 0.395-6.55 0.518-9.83 0.216-4.42 1.04-7.95 2.48-12.2 0.256-2.35 0.442-4.7 0.562-7.06 0.346-6.49 0.346-6.49 0.938-9.34 0.486-2.52 0.67-4.87 0.746-7.43 0.0329-0.9 0.0657-1.8 0.0996-2.73 0.0609-1.87 0.118-3.73 0.172-5.6 0.2-5.28 0.881-9.76 2.48-14.8 0.239-1.76 0.433-3.54 0.562-5.31 0.337-4.49 0.337-4.49 1.44-6.69 0.199-3.3 0.345-6.58 0.43-9.88 0.21-4.7 1.03-8.03 3.57-12.1 2.87-1.44 5.34-1.13 8.55-1.13zm-16.5 63.1 1 3z" fill="#FBFCFE"/>
<path transform="translate(1382 268)" d="m0 0c2.9 2.06 3.56 3.31 4.43 6.73 0.23 2.64 0.23 2.64 0.188 5.25-0.00645 0.871-0.0129 1.74-0.0195 2.64-0.168 2.11-0.168 2.11-1.17 3.11-7.96 0.994-13.5-0.382-20-5-0.33-0.33-0.66-0.66-1-1-12.5-1.38-12.5-1.38-23.9 2.56-1.7 1.63-1.7 1.63-3.12 3.44-0.518 0.553-1.04 1.11-1.57 1.68-2.55 3.04-3.74 5.46-3.87 9.45 0.542 4.8 1.05 7.49 4.5 10.9 6.05 3.99 12.9 6.38 19.7 9.01 3.95 1.62 7.7 3.56 11.3 5.93v2c0.908 0.227 1.82 0.454 2.75 0.688 3.82 1.54 4.95 2.94 7.25 6.31 0.69 0.834 1.38 1.67 2.09 2.53 2.59 4.71 2.46 8.5 2.35 13.8 0.00709 0.899 0.0142 1.8 0.0215 2.72-0.128 13.6-6.66 23.9-15.5 34-3 2-3 2-6 2v2c-13.8 5.55-26.7 7.61-41 2-0.694-0.24-1.39-0.48-2.1-0.727-1.99-0.701-3.94-1.47-5.9-2.27-1.06-0.394-1.06-0.394-2.13-0.797-4.73-1.99-7.51-4.25-9.58-9.04-0.475-3.61 1.23-5.76 3.29-8.6 2.14-2.35 3.32-2.55 6.52-2.9 4.98 0.428 8.15 2.23 12.4 4.71 7.14 4.09 15 8.48 23.5 6.62 2.47-1.33 4.67-2.82 6.92-4.49 2.08-1.51 2.08-1.51 4.27-2.46 1.96-0.898 1.96-0.898 2.6-2.89 0.195-1.04 0.195-1.04 0.395-2.1 0.493-2.46 1.01-4.66 1.81-7.06 0.404-4.15 0.405-7.86-1-11.8-2.84-3.11-6.23-4.49-10-6.19-1.96-0.995-3.92-2-5.88-3-3.74-1.89-7.43-3.52-11.4-4.94-7.56-2.93-14.3-9.29-18.8-16.1-3.11-7.76-3.64-16.3-0.539-24.1 2.3-5.2 4.74-10.6 8.54-14.9h2c0.227-0.557 0.454-1.11 0.688-1.69 4.84-8.53 13.6-10.5 22.3-13.3 11.4-3.81 24.2 0.255 34.6 5.27z" fill="#FBFCFE"/>
<path transform="translate(1283 269)" d="m0 0c2.68 2.05 3.34 3.46 4.21 6.7 0.23 2.42 0.23 2.42 0.188 4.75-0.00645 0.779-0.0129 1.56-0.0195 2.36-0.168 1.89-0.168 1.89-1.17 2.89-7.7 1.1-12.2-0.34-18.5-4.59-6.23-3.55-14.6-2.94-21.5-1.41-2.52 0.938-3.7 1.49-5.09 3.82-0.302 0.719-0.603 1.44-0.914 2.18-0.638 1.17-0.638 1.17-1.29 2.37-3.68 6.47-3.68 6.47-3.71 13.6 3.8 6.75 8.37 9.81 15.4 12.8 1.63 0.723 3.27 1.45 4.9 2.17 0.786 0.341 1.57 0.682 2.38 1.03 3.51 1.56 6.92 3.3 10.3 5.04v2c1.08 0.0928 1.08 0.0928 2.19 0.188 3.8 1.1 5.21 2.83 7.81 5.81 0.544 0.487 1.09 0.975 1.65 1.48 4.46 4.58 4.98 9.07 5.04 15.2-0.253 13.3-5.35 24.9-14.7 34.4-5.85 5.28-11.2 8.17-18.7 10.3-2.22 0.582-2.22 0.582-4.21 1.65-3.14 0.237-6.29 0.185-9.44 0.188-0.872 0.0122-1.74 0.0245-2.64 0.0371-1.26 0.0029-1.26 0.0029-2.54 0.00586-0.768 0.00411-1.54 0.00822-2.33 0.0125-2.05-0.243-2.05-0.243-5.05-2.24-1.53-0.453-3.07-0.866-4.62-1.25-5.43-1.56-10.1-4.01-14.4-7.75-0.33-0.99-0.66-1.98-1-3h-2c-0.812-2.69-0.812-2.69-1-6 2.31-2.75 2.31-2.75 5-5l2-2c5.71-0.65 9.24 0.808 13.9 3.81 11.2 6.76 11.2 6.76 24.1 7.19 2.3-1.13 4.3-2.4 6.37-3.91 1.63-1.09 1.63-1.09 3.63-1.09 0.268-0.701 0.536-1.4 0.812-2.12 1.19-2.88 1.19-2.88 2.75-5.62 2.1-4.76 3.44-9.44 1.64-14.5-0.689-1.36-1.42-2.71-2.19-4.02-1.01-1.73-1.01-1.73-2.01-4.73-2.26-0.955-2.26-0.955-4.94-1.56-4.86-1.24-4.86-1.24-7.06-3.44-3.61-1.7-7.06-2.45-11-3v-2c-0.944-0.133-0.944-0.133-1.91-0.27-7.36-1.54-10.3-4.72-14.5-10.8-1.61-2.91-2.63-5.71-3.59-8.89-0.33-0.66-0.66-1.32-1-2-1.33-12.6 3.77-21.6 10.9-31.6 0.657-0.929 1.31-1.86 1.99-2.82 4.04-4.97 8.26-7.23 14.1-9.62 0.99-0.66 1.98-1.32 3-2 13.9-4.47 26.2-1.33 38.8 5.3zm-18.8 88.7 1 2z" fill="#FBFCFE"/>
<path transform="translate(701 264)" d="m0 0c0.875-0.00219 1.75-0.00438 2.65-0.00664 2.9-0.00231 5.79 0.024 8.69 0.0508 2.01 0.00492 4.02 0.00822 6.03 0.00996 4.21 0.00765 8.42 0.0282 12.6 0.0591 5.41 0.0396 10.8 0.0576 16.2 0.0673 5.15 0.00996 10.3 0.0299 15.4 0.0511 0.987 0.0034 1.97 0.00679 2.99 0.0103 2.78 0.0115 5.56 0.0301 8.35 0.051 0.83 0.00269 1.66 0.00538 2.51 0.00815 5.7 0.0539 5.7 0.0539 7.93 1.17 0.426 6.17 0.125 9.03-4 14-3.13 0.694-3.13 0.694-6.78 0.629-1.98 0.00483-1.98 0.00483-3.99 0.00977-1.39-0.0224-2.78-0.0478-4.17-0.0762-2.72-0.0487-5.43-0.0626-8.15-0.0586-1.21-0.0225-2.41-0.045-3.65-0.0681-4.2 0.727-5.64 2.28-8.26 5.56-0.737 2.87-0.737 2.87-0.688 5.88-0.148 3.48-0.335 6.2-1.31 9.56-1.29 4.58-1.49 9.03-1.75 13.8-0.246 2.79-0.246 2.79-1.25 4.79-0.264 3.44-0.445 6.88-0.605 10.3-0.294 5.58-0.294 5.58-1.39 6.68-0.216 1.75-0.371 3.52-0.5 5.28-0.0825 1.07-0.165 2.14-0.25 3.24-0.0825 1.13-0.165 2.25-0.25 3.42-0.163 2.22-0.329 4.44-0.5 6.65-0.0722 0.989-0.144 1.98-0.219 3-0.281 2.41-0.281 2.41-1.28 4.41-0.157 2.33-0.276 4.67-0.375 7-0.434 7.9-1.19 15.9-6.62 22-4.71 1.57-9.17 1.43-13.9 0.312-2.06-1.31-2.06-1.31-2.94-3.38-0.196-4.6-0.216-9.75 1.88-13.9 0.128-1.45 0.202-2.9 0.246-4.36 0.0493-1.3 0.0493-1.3 0.0996-2.63 0.0607-1.82 0.118-3.65 0.172-5.47 0.192-4.92 0.786-8.87 2.48-13.5 0.251-2.08 0.439-4.16 0.562-6.25 0.338-5.55 0.338-5.55 1.44-7.75 0.185-2.84 0.326-5.66 0.438-8.5 0.268-5.8 0.749-11.3 2.09-16.9 0.877-4.8 0.988-9.69 1.23-14.6 0.246-3.03 0.246-3.03 1.25-4.03 0.0718-1.52 0.0839-3.04 0.0625-4.56-0.00902-0.826-0.018-1.65-0.0273-2.5-0.0116-0.638-0.0232-1.28-0.0352-1.93-3.38-1.03-6.41-1.09-9.94-1.03-1.14 0.0122-2.28 0.0245-3.46 0.0371-2.4 0.0352-4.8 0.0742-7.2 0.117-1.71 0.0164-1.71 0.0164-3.46 0.0332-1.04 0.0168-2.09 0.0337-3.16 0.051-2.79-0.212-4.41-0.77-6.78-2.21-0.0815-1.58-0.139-3.17-0.188-4.75-0.0348-0.882-0.0696-1.76-0.105-2.67 0.826-7.27 5.6-7.15 11.9-7.05z" fill="#FCFDFF"/>
<path transform="translate(175,362)" d="m0 0h196v1h-196v-1z" fill="#000102"/>
<path transform="translate(395,363)" d="m0 0h15v2h-15v-2z" fill="#000102"/>
<path transform="translate(133,362)" d="m0 0h27v1h-27v-1z" fill="#000102"/>
<path transform="translate(291,180)" d="m0 0h1v23h-1v-23z" fill="#000102"/>
<path transform="translate(417,348)" d="m0 0h1v7h-1v-7z" fill="#000102"/>
<path transform="translate(90,363)" d="m0 0h3v2h-3v-2z" fill="#000102"/>
<path transform="translate(291,205)" d="m0 0h1v5h-1v-5z" fill="#000102"/>
<path transform="translate(468,393)" d="m0 0h2v2h-2v-2z" fill="#000102"/>
<path transform="translate(123,362)" d="m0 0 4 1z" fill="#000102"/>
<path transform="translate(290,218)" d="m0 0h2v2h-2v-2z" fill="#000102"/>
<path transform="translate(1172,392)" d="m0 0c3 1 3 1 3 1z" fill="#000102"/>
<path transform="translate(1282,287)" d="m0 0c3 1 3 1 3 1z" fill="#000102"/>
<path transform="translate(188,235)" d="m0 0h2c-0.33 0.66-0.66 1.32-1 2-0.33-0.66-0.66-1.32-1-2z" fill="#000102"/>
<path transform="translate(1468,394)" d="m0 0 2 1z" fill="#000102"/>
<path transform="translate(1043,394)" d="m0 0 2 1z" fill="#000102"/>
<path transform="translate(495,392)" d="m0 0 2 1z" fill="#000102"/>
<path transform="translate(1050,346)" d="m0 0 2 1z" fill="#000102"/>
<path transform="translate(1380,287)" d="m0 0 2 1z" fill="#000102"/>
<path transform="translate(695,281)" d="m0 0 2 1z" fill="#000102"/>
</svg>
